# xmcd CD database file
#
# Track frame offsets:
#	150
#	16399
#	33045
#	50526
#	66810
#	81540
#	101138
#	112727
#	128895
#	144225
#	163410
#	181145
#
# Disc length: 2597 seconds
#
# Revision: 8
# Processed by: cddbd v1.5.2PL0 Copyright (c) Steve Scherf et al.
# Submitted via: CDex 1.83
#
DISCID=9d0a230c
DTITLE=Soundtrack - Best Of Country Sing The Best Of Disney
DYEAR=1996
DGENRE=Country
TTITLE0=Kiss The Girl (The Little Mermaid) - Little Texas
TTITLE1=Beauty And The Beast (Beauty And The Beast) - Diamond Rio
TTITLE2=Some Day My Prince Will Come (Snow White And The Seven Dwarfs) - Tanya Tucker
TTITLE3=Baby Mine (Dumbo) - Alison Krauss
TTITLE4=A Whole New World (Aladdin) - Collin Raye
TTITLE5=Colors Of The Wind (Pocahontas) - Pam Tillis
TTITLE6=You've Got A Friend In Me (Toy Story) - George Jones And Kathy Mattea
TTITLE7=Can You Feel The Love Tonight (The Lion King) - Larry Stewart
TTITLE8=Part Of Your World (The Little Mermaid) - Faith Hill
TTITLE9=If I Never Knew You (Pocahontas) - Hal Ketchum And Shelby Lynne
TTITLE10=Someday (Hunchback Of Notre Dame) - Lee Roy Parnell
TTITLE11=When You Wish Upon A Star (Pinocchio) - Bryan White
EXTD=YEAR: 1996
EXTT0=
EXTT1=
EXTT2=
EXTT3=
EXTT4=
EXTT5=
EXTT6=
EXTT7=
EXTT8=
EXTT9=
EXTT10=
EXTT11=
PLAYORDER=
